<mxfile host="app.diagrams.net" agent="Mozilla/5.0 (Windows NT 10.0; Win64; x64) AppleWebKit/537.36 (KHTML, like Gecko) Chrome/140.0.0.0 Safari/537.36" version="28.2.5">
  <diagram name="第 1 页" id="ymwS_IY8MIXRyYueqAV2">
    <mxGraphModel dx="689" dy="368" grid="1" gridSize="10" guides="1" tooltips="1" connect="1" arrows="1" fold="1" page="1" pageScale="1" pageWidth="1169" pageHeight="827" math="0" shadow="0">
      <root>
        <mxCell id="0" />
        <mxCell id="1" parent="0" />
        <mxCell id="_RP0dMVc5jquQAwwALMM-1" value="" style="rounded=0;whiteSpace=wrap;html=1;fillStyle=auto;fillColor=#808080;" parent="1" vertex="1">
          <mxGeometry x="440" y="240" width="120" height="80" as="geometry" />
        </mxCell>
        <mxCell id="amTEWInF5iUkod_gDk52-12" value="0.6" style="text;html=1;align=center;verticalAlign=middle;resizable=0;points=[];autosize=1;strokeColor=none;fillColor=none;rotation=0;" parent="1" vertex="1">
          <mxGeometry x="480" y="188" width="40" height="30" as="geometry" />
        </mxCell>
        <mxCell id="N4_VROy1ueIJlBlE-Fv6-8" value="" style="endArrow=classic;html=1;rounded=0;" edge="1" parent="1">
          <mxGeometry width="50" height="50" relative="1" as="geometry">
            <mxPoint x="520" y="217" as="sourcePoint" />
            <mxPoint x="520" y="240" as="targetPoint" />
          </mxGeometry>
        </mxCell>
        <mxCell id="N4_VROy1ueIJlBlE-Fv6-9" value="" style="endArrow=classic;html=1;rounded=0;" edge="1" parent="1">
          <mxGeometry width="50" height="50" relative="1" as="geometry">
            <mxPoint x="540" y="217" as="sourcePoint" />
            <mxPoint x="540" y="240" as="targetPoint" />
          </mxGeometry>
        </mxCell>
        <mxCell id="N4_VROy1ueIJlBlE-Fv6-10" value="" style="endArrow=classic;html=1;rounded=0;" edge="1" parent="1">
          <mxGeometry width="50" height="50" relative="1" as="geometry">
            <mxPoint x="560" y="217" as="sourcePoint" />
            <mxPoint x="560" y="240" as="targetPoint" />
          </mxGeometry>
        </mxCell>
        <mxCell id="amTEWInF5iUkod_gDk52-8" value="" style="endArrow=none;html=1;rounded=0;" parent="1" edge="1">
          <mxGeometry width="50" height="50" relative="1" as="geometry">
            <mxPoint x="440" y="246" as="sourcePoint" />
            <mxPoint x="440" y="200" as="targetPoint" />
          </mxGeometry>
        </mxCell>
        <mxCell id="amTEWInF5iUkod_gDk52-11" value="" style="endArrow=classic;startArrow=classic;html=1;rounded=0;entryX=0.175;entryY=-0.03;entryDx=0;entryDy=0;entryPerimeter=0;" parent="1" edge="1" target="N4_VROy1ueIJlBlE-Fv6-17">
          <mxGeometry width="50" height="50" relative="1" as="geometry">
            <mxPoint x="440" y="209" as="sourcePoint" />
            <mxPoint x="680" y="209" as="targetPoint" />
          </mxGeometry>
        </mxCell>
        <mxCell id="aA4TWFpYKM8wpIwpPznY-1" value="" style="endArrow=none;html=1;rounded=0;" parent="1" edge="1">
          <mxGeometry width="50" height="50" relative="1" as="geometry">
            <mxPoint x="560" y="240" as="sourcePoint" />
            <mxPoint x="560" y="200" as="targetPoint" />
          </mxGeometry>
        </mxCell>
        <mxCell id="_RP0dMVc5jquQAwwALMM-17" value="" style="endArrow=classic;html=1;rounded=0;" parent="1" edge="1">
          <mxGeometry width="50" height="50" relative="1" as="geometry">
            <mxPoint x="440" y="216.5" as="sourcePoint" />
            <mxPoint x="440" y="239.5" as="targetPoint" />
          </mxGeometry>
        </mxCell>
        <mxCell id="N4_VROy1ueIJlBlE-Fv6-5" value="" style="endArrow=classic;html=1;rounded=0;" edge="1" parent="1">
          <mxGeometry width="50" height="50" relative="1" as="geometry">
            <mxPoint x="460" y="216.5" as="sourcePoint" />
            <mxPoint x="460" y="239.5" as="targetPoint" />
          </mxGeometry>
        </mxCell>
        <mxCell id="N4_VROy1ueIJlBlE-Fv6-6" value="" style="endArrow=classic;html=1;rounded=0;" edge="1" parent="1">
          <mxGeometry width="50" height="50" relative="1" as="geometry">
            <mxPoint x="480" y="216.5" as="sourcePoint" />
            <mxPoint x="480" y="239.5" as="targetPoint" />
          </mxGeometry>
        </mxCell>
        <mxCell id="N4_VROy1ueIJlBlE-Fv6-7" value="" style="endArrow=classic;html=1;rounded=0;" edge="1" parent="1">
          <mxGeometry width="50" height="50" relative="1" as="geometry">
            <mxPoint x="500" y="216.5" as="sourcePoint" />
            <mxPoint x="500" y="239.5" as="targetPoint" />
          </mxGeometry>
        </mxCell>
        <mxCell id="N4_VROy1ueIJlBlE-Fv6-17" value="t" style="text;html=1;align=center;verticalAlign=middle;resizable=0;points=[];autosize=1;strokeColor=none;fillColor=none;" vertex="1" parent="1">
          <mxGeometry x="555" y="210" width="30" height="30" as="geometry" />
        </mxCell>
        <mxCell id="_RP0dMVc5jquQAwwALMM-16" value="" style="endArrow=none;html=1;rounded=0;startSize=6;exitX=0.053;exitY=1.001;exitDx=0;exitDy=0;exitPerimeter=0;" parent="1" edge="1">
          <mxGeometry width="50" height="50" relative="1" as="geometry">
            <mxPoint x="449.72000000000014" y="320.0799999999999" as="sourcePoint" />
            <mxPoint x="440" y="330" as="targetPoint" />
          </mxGeometry>
        </mxCell>
        <mxCell id="N4_VROy1ueIJlBlE-Fv6-21" value="" style="endArrow=none;html=1;rounded=0;startSize=6;exitX=0.053;exitY=1.001;exitDx=0;exitDy=0;exitPerimeter=0;" edge="1" parent="1">
          <mxGeometry width="50" height="50" relative="1" as="geometry">
            <mxPoint x="459.72000000000014" y="320" as="sourcePoint" />
            <mxPoint x="450" y="329.9200000000001" as="targetPoint" />
          </mxGeometry>
        </mxCell>
        <mxCell id="N4_VROy1ueIJlBlE-Fv6-22" value="" style="endArrow=none;html=1;rounded=0;startSize=6;exitX=0.053;exitY=1.001;exitDx=0;exitDy=0;exitPerimeter=0;" edge="1" parent="1">
          <mxGeometry width="50" height="50" relative="1" as="geometry">
            <mxPoint x="469.72000000000014" y="320" as="sourcePoint" />
            <mxPoint x="460" y="329.9200000000001" as="targetPoint" />
          </mxGeometry>
        </mxCell>
        <mxCell id="N4_VROy1ueIJlBlE-Fv6-23" value="" style="endArrow=none;html=1;rounded=0;startSize=6;exitX=0.053;exitY=1.001;exitDx=0;exitDy=0;exitPerimeter=0;" edge="1" parent="1">
          <mxGeometry width="50" height="50" relative="1" as="geometry">
            <mxPoint x="479.72000000000014" y="320.0799999999999" as="sourcePoint" />
            <mxPoint x="470" y="330" as="targetPoint" />
          </mxGeometry>
        </mxCell>
        <mxCell id="N4_VROy1ueIJlBlE-Fv6-24" value="" style="endArrow=none;html=1;rounded=0;startSize=6;exitX=0.053;exitY=1.001;exitDx=0;exitDy=0;exitPerimeter=0;" edge="1" parent="1">
          <mxGeometry width="50" height="50" relative="1" as="geometry">
            <mxPoint x="489.72000000000014" y="320" as="sourcePoint" />
            <mxPoint x="480" y="329.9200000000001" as="targetPoint" />
          </mxGeometry>
        </mxCell>
        <mxCell id="N4_VROy1ueIJlBlE-Fv6-25" value="" style="endArrow=none;html=1;rounded=0;startSize=6;exitX=0.053;exitY=1.001;exitDx=0;exitDy=0;exitPerimeter=0;" edge="1" parent="1">
          <mxGeometry width="50" height="50" relative="1" as="geometry">
            <mxPoint x="499.72000000000014" y="320" as="sourcePoint" />
            <mxPoint x="490" y="329.9200000000001" as="targetPoint" />
          </mxGeometry>
        </mxCell>
        <mxCell id="N4_VROy1ueIJlBlE-Fv6-26" value="" style="endArrow=none;html=1;rounded=0;startSize=6;exitX=0.053;exitY=1.001;exitDx=0;exitDy=0;exitPerimeter=0;" edge="1" parent="1">
          <mxGeometry width="50" height="50" relative="1" as="geometry">
            <mxPoint x="509.72000000000014" y="320.0799999999999" as="sourcePoint" />
            <mxPoint x="500" y="330" as="targetPoint" />
          </mxGeometry>
        </mxCell>
        <mxCell id="N4_VROy1ueIJlBlE-Fv6-27" value="" style="endArrow=none;html=1;rounded=0;startSize=6;exitX=0.053;exitY=1.001;exitDx=0;exitDy=0;exitPerimeter=0;" edge="1" parent="1">
          <mxGeometry width="50" height="50" relative="1" as="geometry">
            <mxPoint x="519.7200000000001" y="320" as="sourcePoint" />
            <mxPoint x="510" y="329.9200000000001" as="targetPoint" />
          </mxGeometry>
        </mxCell>
        <mxCell id="N4_VROy1ueIJlBlE-Fv6-28" value="" style="endArrow=none;html=1;rounded=0;startSize=6;exitX=0.053;exitY=1.001;exitDx=0;exitDy=0;exitPerimeter=0;" edge="1" parent="1">
          <mxGeometry width="50" height="50" relative="1" as="geometry">
            <mxPoint x="529.7200000000001" y="320" as="sourcePoint" />
            <mxPoint x="520" y="329.9200000000001" as="targetPoint" />
          </mxGeometry>
        </mxCell>
        <mxCell id="N4_VROy1ueIJlBlE-Fv6-29" value="" style="endArrow=none;html=1;rounded=0;startSize=6;exitX=0.053;exitY=1.001;exitDx=0;exitDy=0;exitPerimeter=0;" edge="1" parent="1">
          <mxGeometry width="50" height="50" relative="1" as="geometry">
            <mxPoint x="539.8600000000001" y="320.0799999999999" as="sourcePoint" />
            <mxPoint x="530.14" y="330" as="targetPoint" />
          </mxGeometry>
        </mxCell>
        <mxCell id="N4_VROy1ueIJlBlE-Fv6-30" value="" style="endArrow=none;html=1;rounded=0;startSize=6;exitX=0.053;exitY=1.001;exitDx=0;exitDy=0;exitPerimeter=0;" edge="1" parent="1">
          <mxGeometry width="50" height="50" relative="1" as="geometry">
            <mxPoint x="549.8600000000001" y="320" as="sourcePoint" />
            <mxPoint x="540.14" y="329.9200000000001" as="targetPoint" />
          </mxGeometry>
        </mxCell>
        <mxCell id="N4_VROy1ueIJlBlE-Fv6-31" value="" style="endArrow=none;html=1;rounded=0;startSize=6;exitX=0.053;exitY=1.001;exitDx=0;exitDy=0;exitPerimeter=0;" edge="1" parent="1">
          <mxGeometry width="50" height="50" relative="1" as="geometry">
            <mxPoint x="559.8600000000001" y="320" as="sourcePoint" />
            <mxPoint x="550.14" y="329.9200000000001" as="targetPoint" />
          </mxGeometry>
        </mxCell>
        <mxCell id="N4_VROy1ueIJlBlE-Fv6-46" value="" style="endArrow=none;html=1;rounded=0;startSize=6;exitX=0.053;exitY=1.001;exitDx=0;exitDy=0;exitPerimeter=0;" edge="1" parent="1">
          <mxGeometry width="50" height="50" relative="1" as="geometry">
            <mxPoint x="570" y="300" as="sourcePoint" />
            <mxPoint x="580" y="310" as="targetPoint" />
          </mxGeometry>
        </mxCell>
        <mxCell id="N4_VROy1ueIJlBlE-Fv6-47" value="" style="endArrow=none;html=1;rounded=0;startSize=6;exitX=0.053;exitY=1.001;exitDx=0;exitDy=0;exitPerimeter=0;" edge="1" parent="1">
          <mxGeometry width="50" height="50" relative="1" as="geometry">
            <mxPoint x="570" y="290" as="sourcePoint" />
            <mxPoint x="580" y="300" as="targetPoint" />
          </mxGeometry>
        </mxCell>
        <mxCell id="N4_VROy1ueIJlBlE-Fv6-48" value="" style="endArrow=none;html=1;rounded=0;startSize=6;exitX=0.053;exitY=1.001;exitDx=0;exitDy=0;exitPerimeter=0;" edge="1" parent="1">
          <mxGeometry width="50" height="50" relative="1" as="geometry">
            <mxPoint x="570" y="280" as="sourcePoint" />
            <mxPoint x="580" y="290" as="targetPoint" />
          </mxGeometry>
        </mxCell>
        <mxCell id="N4_VROy1ueIJlBlE-Fv6-49" value="" style="endArrow=none;html=1;rounded=0;startSize=6;exitX=0.053;exitY=1.001;exitDx=0;exitDy=0;exitPerimeter=0;" edge="1" parent="1">
          <mxGeometry width="50" height="50" relative="1" as="geometry">
            <mxPoint x="570" y="270" as="sourcePoint" />
            <mxPoint x="580" y="280" as="targetPoint" />
          </mxGeometry>
        </mxCell>
        <mxCell id="N4_VROy1ueIJlBlE-Fv6-50" value="" style="endArrow=none;html=1;rounded=0;startSize=6;exitX=0.053;exitY=1.001;exitDx=0;exitDy=0;exitPerimeter=0;" edge="1" parent="1">
          <mxGeometry width="50" height="50" relative="1" as="geometry">
            <mxPoint x="570" y="260" as="sourcePoint" />
            <mxPoint x="580" y="270" as="targetPoint" />
          </mxGeometry>
        </mxCell>
        <mxCell id="N4_VROy1ueIJlBlE-Fv6-51" value="" style="endArrow=none;html=1;rounded=0;startSize=6;exitX=0.053;exitY=1.001;exitDx=0;exitDy=0;exitPerimeter=0;" edge="1" parent="1">
          <mxGeometry width="50" height="50" relative="1" as="geometry">
            <mxPoint x="570" y="250" as="sourcePoint" />
            <mxPoint x="580" y="260" as="targetPoint" />
          </mxGeometry>
        </mxCell>
        <mxCell id="N4_VROy1ueIJlBlE-Fv6-52" value="" style="endArrow=none;html=1;rounded=0;startSize=6;exitX=0.053;exitY=1.001;exitDx=0;exitDy=0;exitPerimeter=0;" edge="1" parent="1">
          <mxGeometry width="50" height="50" relative="1" as="geometry">
            <mxPoint x="570" y="240" as="sourcePoint" />
            <mxPoint x="580" y="250" as="targetPoint" />
          </mxGeometry>
        </mxCell>
        <mxCell id="N4_VROy1ueIJlBlE-Fv6-54" value="" style="endArrow=none;html=1;rounded=0;startSize=6;exitX=0.053;exitY=1.001;exitDx=0;exitDy=0;exitPerimeter=0;" edge="1" parent="1">
          <mxGeometry width="50" height="50" relative="1" as="geometry">
            <mxPoint x="570" y="310" as="sourcePoint" />
            <mxPoint x="580" y="320" as="targetPoint" />
          </mxGeometry>
        </mxCell>
        <mxCell id="N4_VROy1ueIJlBlE-Fv6-55" value="" style="endArrow=none;html=1;rounded=0;" edge="1" parent="1">
          <mxGeometry width="50" height="50" relative="1" as="geometry">
            <mxPoint x="569.9" y="320" as="sourcePoint" />
            <mxPoint x="569.9" y="240" as="targetPoint" />
          </mxGeometry>
        </mxCell>
        <mxCell id="N4_VROy1ueIJlBlE-Fv6-56" value="" style="ellipse;whiteSpace=wrap;html=1;aspect=fixed;" vertex="1" parent="1">
          <mxGeometry x="560" y="240" width="10" height="10" as="geometry" />
        </mxCell>
        <mxCell id="N4_VROy1ueIJlBlE-Fv6-57" value="" style="ellipse;whiteSpace=wrap;html=1;aspect=fixed;" vertex="1" parent="1">
          <mxGeometry x="560" y="310" width="10" height="10" as="geometry" />
        </mxCell>
        <mxCell id="N4_VROy1ueIJlBlE-Fv6-58" value="" style="ellipse;whiteSpace=wrap;html=1;aspect=fixed;" vertex="1" parent="1">
          <mxGeometry x="560" y="275" width="10" height="10" as="geometry" />
        </mxCell>
        <mxCell id="amTEWInF5iUkod_gDk52-2" value="" style="endArrow=none;html=1;rounded=0;" parent="1" edge="1">
          <mxGeometry width="50" height="50" relative="1" as="geometry">
            <mxPoint x="438" y="320" as="sourcePoint" />
            <mxPoint x="410" y="320" as="targetPoint" />
          </mxGeometry>
        </mxCell>
        <mxCell id="amTEWInF5iUkod_gDk52-4" value="" style="endArrow=none;html=1;rounded=0;" parent="1" edge="1">
          <mxGeometry width="50" height="50" relative="1" as="geometry">
            <mxPoint x="440" y="240" as="sourcePoint" />
            <mxPoint x="410" y="240" as="targetPoint" />
          </mxGeometry>
        </mxCell>
        <mxCell id="amTEWInF5iUkod_gDk52-5" value="" style="endArrow=classic;startArrow=classic;html=1;rounded=0;" parent="1" edge="1">
          <mxGeometry width="50" height="50" relative="1" as="geometry">
            <mxPoint x="419.39" y="320" as="sourcePoint" />
            <mxPoint x="419.39" y="240" as="targetPoint" />
          </mxGeometry>
        </mxCell>
        <mxCell id="amTEWInF5iUkod_gDk52-6" value="0.4" style="text;html=1;align=center;verticalAlign=middle;resizable=0;points=[];autosize=1;strokeColor=none;fillColor=none;rotation=270;" parent="1" vertex="1">
          <mxGeometry x="390" y="265" width="40" height="30" as="geometry" />
        </mxCell>
      </root>
    </mxGraphModel>
  </diagram>
</mxfile>
